# xmcd
# 
# Track frame offsets:
#     150
#     19881
#     42260
#     63476
#     82184
# 
# Disc length: 1386
# 
# Revision: 0
# Processed by: cddbd v1.5.2PL0 Copyright (c) Steve Scherf et al.
# Submitted via: fre:ac v1.0.17
# 
DISCID=3e056805
DTITLE=Kenneth J Nash - Slow Burn EP
DYEAR=2014
DGENRE=Country
TTITLE0=Slow Burn
TTITLE1=Carol Ann
TTITLE2=Head Over Heels
TTITLE3=Tigers Aren't Tame
TTITLE4=Take Me Home
EXTD=
EXTT0=
EXTT1=
EXTT2=
EXTT3=
EXTT4=
PLAYORDER=
